#!OML:ASF F:\VICON\USERDATA\INSTALL\Justin_Nancy\Justin_Nancy.ASF
:FULLY-SPECIFIED
:DEGREES
130
root 0.913759 17.3744 -1.89451 -2.83851 -0.330631 -1.02626
lowerback 7.09025 -1.29022 -0.0849537
upperback 0.0632869 -1.56912 3.99836
thorax -3.79909 -0.743721 4.36471
lowerneck -16.252 -2.61554 -9.09383
upperneck 22.6795 -2.10267 3.58715
head 10.0577 -1.34545 2.5042
rclavicle -1.56543e-014 -2.38542e-015
rhumerus -44.7545 -20.0031 -70.7584
rradius 25.6646
rwrist 10.8227
rhand -15.0672 12.5114
rfingers 7.12502
rthumb 11.0999 -17.175
lclavicle -1.56543e-014 -2.38542e-015
lhumerus -30.0113 5.64788 85.6836
lradius 37.0809
lwrist -0.300629
lhand -17.9436 26.5269
lfingers 7.12502
lthumb 8.32472 56.3429
rfemur -19.7276 4.44845 24.1154
rtibia 28.2726
rfoot -1.67083 -1.77871
rtoes -1.66405
lfemur -3.54001 -2.84037 -19.1725
ltibia 60.7725
lfoot 23.8691 -11.4411
ltoes -7.43018
131
root 0.892336 17.3982 -1.67141 -2.96814 -0.864344 -1.48794
lowerback 7.22363 -1.05125 0.262844
upperback 0.0878749 -1.21504 4.09737
thorax -3.8804 -0.572302 4.23944
lowerneck -15.7435 -2.62824 -9.25098
upperneck 22.3766 -2.20181 3.88489
head 9.86456 -1.36858 2.62089
rclavicle -8.57259e-015 5.08889e-014
rhumerus -44.1814 -19.5292 -71.2648
rradius 25.9467
rwrist 10.3081
rhand -15.0153 13.0267
rfingers 7.12502
rthumb 11.15 -16.6571
lclavicle -8.57259e-015 5.08889e-014
lhumerus -30.2515 5.75187 85.791
lradius 36.3236
lwrist -0.793164
lhand -17.8042 25.5871
lfingers 7.12502
lthumb 8.45927 55.3977
rfemur -18.5925 5.45472 24.8569
rtibia 28.112
rfoot -1.99729 -2.23576
rtoes 0.250782
lfemur -5.12431 -2.08013 -18.5822
ltibia 62.6648
lfoot 19.8506 -11.5797
ltoes -13.1333
132
root 0.872281 17.4305 -1.44189 -3.00302 -1.27364 -1.67162
lowerback 7.20855 -0.865088 0.311761
upperback 0.173589 -0.963355 4.17227
thorax -3.80027 -0.449036 4.26228
lowerneck -15.6049 -2.62769 -9.36061
upperneck 22.1671 -2.23641 4.09962
head 9.76949 -1.36648 2.70839
rclavicle 1.24116e-014 2.78299e-014
rhumerus -43.2635 -19.1796 -71.7513
rradius 26.2131
rwrist 10.135
rhand -15.1058 12.7597
rfingers 7.12502
rthumb 11.0627 -16.9287
lclavicle 1.24116e-014 2.78299e-014
lhumerus -30.2504 5.95828 85.9736
lradius 35.5786
lwrist -1.13248
lhand -17.5708 25.2832
lfingers 7.12502
lthumb 8.68457 55.0846
rfemur -17.6099 6.08908 25.2776
rtibia 28.0396
rfoot -2.65172 -2.61269
rtoes 0.164028
lfemur -6.75425 -1.54906 -18.3721
ltibia 64.2224
lfoot 16.8542 -11.1342
ltoes -16.1689
133
root 0.85473 17.4694 -1.20932 -2.98621 -1.14558 -1.53937
lowerback 7.0593 -0.877957 0.0656503
upperback 0.239543 -1.00738 4.16579
thorax -3.6406 -0.469187 4.39423
lowerneck -15.9561 -2.69689 -9.42695
upperneck 22.4861 -2.27925 4.08278
head 9.95397 -1.39677 2.71103
rclavicle 5.479e-015 7.95139e-015
rhumerus -42.224 -18.9553 -72.0757
rradius 26.228
rwrist 10.2769
rhand -15.4217 12.7169
rfingers 7.12502
rthumb 10.758 -16.9876
lclavicle 5.479e-015 7.95139e-015
lhumerus -30.345 6.26165 86.1541
lradius 34.899
lwrist -1.58344
lhand -17.4919 25.3397
lfingers 7.12502
lthumb 8.76066 55.1379
rfemur -16.6556 6.22725 25.2927
rtibia 27.9639
rfoot -3.23006 -3.24251
rtoes -1.5031
lfemur -8.51042 -1.58026 -18.5268
ltibia 65.4439
lfoot 13.9314 -10.2347
ltoes -13.6178
134
root 0.838033 17.4954 -0.981019 -2.99737 -0.729744 -1.40361
lowerback 6.87656 -0.943814 -0.0806126
upperback 0.308085 -1.11757 4.0537
thorax -3.4578 -0.5254 4.36362
lowerneck -16.1403 -2.80618 -9.42493
upperneck 22.7447 -2.43441 4.14828
head 10.094 -1.46385 2.71605
rclavicle 1.71452e-014 9.54166e-015
rhumerus -41.17 -19.0253 -72.3855
rradius 25.9876
rwrist 10.4162
rhand -15.8483 13.0479
rfingers 7.12502
rthumb 10.3465 -16.6775
lclavicle 1.71452e-014 9.54166e-015
lhumerus -30.4551 6.33998 86.2322
lradius 33.9638
lwrist -2.62673
lhand -17.3212 25.882
lfingers 7.12502
lthumb 8.92542 55.6732
rfemur -15.6712 6.19384 25.2744
rtibia 27.8371
rfoot -3.83774 -3.93102
rtoes -1.68932
lfemur -10.1426 -1.84015 -18.7067
ltibia 66.4193
lfoot 10.8416 -9.62145
ltoes -10.27
135
root 0.818451 17.5104 -0.757419 -3.0241 -0.5143 -1.51435
lowerback 6.89441 -0.988055 0.0267195
upperback 0.169131 -1.16581 3.97145
thorax -3.61215 -0.548489 4.22452
lowerneck -15.6026 -2.73754 -9.47597
upperneck 22.7174 -2.44746 4.41176
head 9.98551 -1.44881 2.81865
rclavicle 2.34317e-014 -3.97569e-014
rhumerus -40.5208 -18.9587 -72.6876
rradius 25.8734
rwrist 10.5144
rhand -15.8453 14.1371
rfingers 7.12502
rthumb 10.3494 -15.5883
lclavicle 2.34317e-014 -3.97569e-014
lhumerus -31.1409 6.41808 86.1227
lradius 33.5861
lwrist -3.83443
lhand -16.0887 28.7117
lfingers 7.12502
lthumb 10.1146 58.4486
rfemur -14.7039 6.34323 25.5515
rtibia 27.6642
rfoot -4.53931 -4.52205
rtoes -1.17618
lfemur -11.6868 -1.80223 -18.5651
ltibia 67.2164
lfoot 8.91321 -9.03364
ltoes -10.4365
136
root 0.795238 17.5281 -0.530999 -3.08188 -0.435467 -1.67225
lowerback 6.92406 -0.97738 0.0925346
upperback 0.0718563 -1.14338 3.94054
thorax -3.73335 -0.53636 4.15559
lowerneck -15.3439 -2.69567 -9.43382
upperneck 22.9354 -2.45267 4.497
head 10.0144 -1.44451 2.84563
rclavicle -8.34274e-015 -1.27222e-014
rhumerus -39.8643 -18.834 -72.9362
rradius 25.8057
rwrist 10.2278
rhand -15.8327 15.8654
rfingers 7.12502
rthumb 10.3615 -13.8593
lclavicle -8.34274e-015 -1.27222e-014
lhumerus -31.8692 6.12007 86.3084
lradius 33.3102
lwrist -3.53856
lhand -17.1934 29.3145
lfingers 7.12502
lthumb 9.04874 59.1004
rfemur -13.6378 6.44955 25.9164
rtibia 27.4497
rfoot -5.30748 -4.92664
rtoes -1.79763
lfemur -13.1319 -1.64742 -18.3854
ltibia 67.8142
lfoot 7.4327 -8.15542
ltoes -11.8697
137
root 0.78265 17.5401 -0.309861 -3.10126 -0.544783 -1.7421
lowerback 6.73368 -0.867343 0.223789
upperback 0.258113 -1.0006 3.84651
thorax -3.44694 -0.472974 3.95956
lowerneck -15.679 -2.79789 -9.26547
upperneck 23.1216 -2.59852 4.45183
head 10.1532 -1.50182 2.78331
rclavicle 5.40446e-015 -2.22639e-014
rhumerus -38.7586 -18.9413 -73.3356
rradius 25.7351
rwrist 10.0598
rhand -16.0157 16.5008
rfingers 7.12502
rthumb 10.185 -13.2327
lclavicle 5.40446e-015 -2.22639e-014
lhumerus -31.7513 6.05227 86.448
lradius 32.3816
lwrist -4.03863
lhand -17.7423 28.2213
lfingers 7.12502
lthumb 8.51904 58.0295
rfemur -12.6724 6.33984 26.134
rtibia 27.2337
rfoot -5.91543 -4.97666
rtoes -2.43905
lfemur -14.5869 -1.39352 -18.4105
ltibia 68.2586
lfoot 5.6324 -7.31538
ltoes -13.1697
138
root 0.776965 17.5448 -0.0969987 -3.06151 -0.956364 -1.80487
lowerback 6.54693 -0.682149 0.392429
upperback 0.416478 -0.753368 3.78126
thorax -3.19744 -0.356444 3.76546
lowerneck -15.7936 -2.8431 -9.17125
upperneck 23.0839 -2.6499 4.356
head 10.163 -1.52622 2.72516
rclavicle 1.64246e-014 -2.38542e-014
rhumerus -37.5119 -18.8869 -73.82
rradius 25.8413
rwrist 9.99938
rhand -15.8398 16.5035
rfingers 7.12502
rthumb 10.3547 -13.2216
lclavicle 1.64246e-014 -2.38542e-014
lhumerus -31.7562 6.17902 86.5157
lradius 31.5758
lwrist -4.80427
lhand -17.922 26.4512
lfingers 7.12502
lthumb 8.34563 56.2664
rfemur -11.8478 6.16416 26.3007
rtibia 27.0822
rfoot -6.53414 -4.63743
rtoes -2.14299
lfemur -16.1307 -0.904368 -18.4655
ltibia 68.5275
lfoot 4.01321 -6.373
ltoes -13.0119
139
root 0.770911 17.544 0.117838 -2.98034 -1.33562 -2.02543
lowerback 6.53343 -0.568997 0.65826
upperback 0.276842 -0.577808 3.79229
thorax -3.34801 -0.270643 3.6124
lowerneck -15.2675 -2.75906 -9.20852
upperneck 23.0174 -2.58231 4.38914
head 10.0344 -1.49894 2.75365
rclavicle 3.16813e-016 2.94201e-014
rhumerus -36.8013 -18.1719 -74.3506
rradius 26.3404
rwrist 9.37796
rhand -15.6666 15.5763
rfingers 7.12502
rthumb 10.5218 -14.1404
lclavicle 3.16813e-016 2.94201e-014
lhumerus -32.4508 6.33152 86.47
lradius 31.1587
lwrist -5.51796
lhand -17.309 26.4762
lfingers 7.12502
lthumb 8.93716 56.2669
rfemur -11.0695 6.03225 26.6282
rtibia 27.0638
rfoot -7.45374 -4.42588
rtoes 0.353113
lfemur -17.6521 -0.457564 -18.3612
ltibia 68.6439
lfoot 2.30943 -5.28227
ltoes -12.0717
140
root 0.760829 17.5399 0.334822 -2.94303 -1.59673 -2.15486
lowerback 6.50802 -0.488157 0.794228
upperback 0.203668 -0.457732 3.79909
thorax -3.41756 -0.212006 3.53211
lowerneck -14.9828 -2.72594 -9.41889
upperneck 23.0624 -2.54995 4.54384
head 9.99895 -1.48859 2.85024
rclavicle -2.67117e-016 -3.4191e-014
rhumerus -36.1413 -17.3854 -74.8724
rradius 27.0395
rwrist 8.63158
rhand -15.4133 14.2119
rfingers 7.12502
rthumb 10.7661 -15.4922
lclavicle -2.67117e-016 -3.4191e-014
lhumerus -32.9316 6.62675 86.3899
lradius 30.4602
lwrist -6.49448
lhand -15.8556 28.3175
lfingers 7.12502
lthumb 10.3394 58.0433
rfemur -10.2629 5.82161 26.8667
rtibia 27.1212
rfoot -8.36283 -4.34924
rtoes -0.491486
lfemur -19.0628 -0.0541132 -18.3328
ltibia 68.5686
lfoot 0.657508 -4.38671
ltoes -12.1467
